<svg width="980" height="167" viewBox="0 0 980 167" fill="none" xmlns="http://www.w3.org/2000/svg">
<path d="M980 7H946.5L913 80L946.5 153H979.923L946.5 80L980 7Z" fill="#D6D6D6"/>
<path d="M864 7H897.279L934 80L897.279 153H864L900.721 80L864 7Z" fill="#E5A10D"/>
<path d="M132.111 6.77018H158.18V152.438H132.111V6.77018Z" fill="#D6D6D6"/>
<path d="M314.225 138.309C312.368 140.167 309.582 142.024 305.867 143.881C302.285 145.739 298.106 147.463 293.33 149.055C288.687 150.515 283.911 151.709 279.002 152.637C274.094 153.566 269.45 154.03 265.072 154.03C249.418 154.03 235.819 150.979 224.277 144.876C212.735 138.774 203.847 130.416 197.611 119.802C191.376 109.189 188.258 97.0499 188.258 83.3852C188.258 70.3839 190.248 58.9745 194.228 49.1572C198.208 39.3399 203.648 31.1809 210.546 24.6802C217.578 18.1795 225.538 13.3372 234.426 10.1532C243.448 6.83652 252.933 5.17819 262.883 5.17819C272.037 5.17819 280.462 6.17319 288.156 8.16319C295.851 10.1532 302.418 12.6739 307.857 15.7252L299.3 40.2022C296.78 38.7429 293.529 37.3499 289.549 36.0232C285.569 34.6965 281.523 33.6352 277.41 32.8392C273.298 31.9105 269.583 31.4462 266.266 31.4462C255.653 31.4462 246.499 33.3699 238.804 37.2172C231.11 40.9319 225.272 46.5039 221.292 53.9332C217.312 61.3625 215.322 70.3839 215.322 80.9972C215.322 90.5492 217.445 98.8409 221.69 105.872C225.936 112.904 231.839 118.343 239.401 122.19C247.096 126.038 255.852 127.961 265.669 127.961C270.047 127.961 274.16 127.63 278.007 126.966C281.855 126.17 285.105 125.043 287.758 123.583V102.887H261.49V77.6142H314.225V138.309Z" fill="#D6D6D6"/>
<path d="M468.806 6.77018V152.438H442.538V91.9422H374.281V152.438H348.212V6.77018H374.281V66.6692H442.538V6.77018H468.806Z" fill="#D6D6D6"/>
<path d="M497.419 6.77018H595.128V32.0432H558.711V152.438H532.443V32.0432H497.419V6.77018Z" fill="#D6D6D6"/>
<path d="M623.975 6.77018H650.044V127.165H720.092V152.438H623.975V6.77018Z" fill="#D6D6D6"/>
<path d="M750.488 6.77018H848.595V32.0432H776.557V66.6692H840.436V91.9422H776.557V127.165H851.381V152.438H750.488V6.77018Z" fill="#D6D6D6"/>
<path d="M132.111 6.77018H158.18V152.438H132.111V6.77018Z" stroke="black"/>
<path d="M314.225 138.309C312.368 140.167 309.582 142.024 305.867 143.881C302.285 145.739 298.106 147.463 293.33 149.055C288.687 150.515 283.911 151.709 279.002 152.637C274.094 153.566 269.45 154.03 265.072 154.03C249.418 154.03 235.819 150.979 224.277 144.876C212.735 138.774 203.847 130.416 197.611 119.802C191.376 109.189 188.258 97.0499 188.258 83.3852C188.258 70.3839 190.248 58.9745 194.228 49.1572C198.208 39.3399 203.648 31.1809 210.546 24.6802C217.578 18.1795 225.538 13.3372 234.426 10.1532C243.448 6.83652 252.933 5.17819 262.883 5.17819C272.037 5.17819 280.462 6.17319 288.156 8.16319C295.851 10.1532 302.418 12.6739 307.857 15.7252L299.3 40.2022C296.78 38.7429 293.529 37.3499 289.549 36.0232C285.569 34.6965 281.523 33.6352 277.41 32.8392C273.298 31.9105 269.583 31.4462 266.266 31.4462C255.653 31.4462 246.499 33.3699 238.804 37.2172C231.11 40.9319 225.272 46.5039 221.292 53.9332C217.312 61.3625 215.322 70.3839 215.322 80.9972C215.322 90.5492 217.445 98.8409 221.69 105.872C225.936 112.904 231.839 118.343 239.401 122.19C247.096 126.038 255.852 127.961 265.669 127.961C270.047 127.961 274.16 127.63 278.007 126.966C281.855 126.17 285.105 125.043 287.758 123.583V102.887H261.49V77.6142H314.225V138.309Z" stroke="black"/>
<path d="M468.806 6.77018V152.438H442.538V91.9422H374.281V152.438H348.212V6.77018H374.281V66.6692H442.538V6.77018H468.806Z" stroke="black"/>
<path d="M497.419 6.77018H595.128V32.0432H558.711V152.438H532.443V32.0432H497.419V6.77018Z" stroke="black"/>
<path d="M623.975 6.77018H650.044V127.165H720.092V152.438H623.975V6.77018Z" stroke="black"/>
<path d="M750.488 6.77018H848.595V32.0432H776.557V66.6692H840.436V91.9422H776.557V127.165H851.381V152.438H750.488V6.77018Z" stroke="black"/>
<path d="M9.59998 6.59998H35.8V127.6H106.2V153H9.59998V6.59998Z" fill="#E5A10D"/>
</svg>
